<svg xmlns="http://www.w3.org/2000/svg" viewBox="0 0 41 40" fill="none">
  <path d="M37.1667 9.82978C35.9409 10.3643 34.6241 10.7255 33.2397 10.8887C34.6681 10.0476 35.7368 8.72383 36.2462 7.16434C34.9042 7.94879 33.4355 8.50096 31.9038 8.79683C30.8738 7.71457 29.5095 6.99723 28.0228 6.75619C26.536 6.51514 25.01 6.76387 23.6816 7.46376C22.3533 8.16365 21.2969 9.27555 20.6764 10.6268C20.056 11.9781 19.9063 13.4931 20.2505 14.9367C17.5312 14.8024 14.871 14.1068 12.4426 12.8953C10.0141 11.6837 7.87172 9.98315 6.15435 7.90402C5.56713 8.90085 5.22948 10.0566 5.22948 11.2875C5.22883 12.3955 5.50611 13.4866 6.03672 14.4639C6.56734 15.4412 7.33489 16.2746 8.27126 16.8899C7.18532 16.8559 6.12333 16.5672 5.1737 16.0477V16.1344C5.17359 17.6885 5.71985 19.1947 6.71981 20.3976C7.71977 21.6005 9.11182 22.4258 10.6598 22.7337C9.65237 23.002 8.59619 23.0415 7.57101 22.8492C8.00774 24.1865 8.85847 25.3558 10.0041 26.1936C11.1497 27.0313 12.5329 27.4956 13.9599 27.5213C11.5374 29.3928 8.54562 30.4079 5.46584 30.4035C4.92028 30.4036 4.37519 30.3723 3.83337 30.3096C6.95953 32.2876 10.5986 33.3374 14.3152 33.3333C26.8963 33.3333 33.7741 23.0789 33.7741 14.1855C33.7741 13.8966 33.7667 13.6047 33.7535 13.3158C35.0913 12.3637 36.2461 11.1847 37.1638 9.83411L37.1667 9.82978Z" fill="currentColor" />
</svg>