<svg width="33" height="28" viewBox="0 0 33 28" fill="none"
  xmlns="http://www.w3.org/2000/svg">
  <path d="M0 0V22.9091C0 25.7218 2.29249 28 5.12288 28H28.1758C31.0062 28 33.2987 25.7218 33.2987 22.9091V8.90909H25.6144V0H0ZM2.56144 2.54545H23.053V22.9091C23.053 23.8382 23.3347 24.7036 23.774 25.4545H5.12288C3.59882 25.4545 2.56144 24.4236 2.56144 22.9091V2.54545ZM5.12288 5.09091V11.4545H20.4915V5.09091H5.12288ZM7.68432 7.63636H17.9301V8.90909H7.68432V7.63636ZM25.6144 11.4545H30.7373V22.9091C30.7373 24.4236 29.6999 25.4545 28.1758 25.4545C26.6518 25.4545 25.6144 24.4236 25.6144 22.9091V11.4545ZM5.12288 12.7273V15.2727H11.5265V12.7273H5.12288ZM14.0879 12.7273V15.2727H20.4915V12.7273H14.0879ZM5.12288 16.5455V19.0909H11.5265V16.5455H5.12288ZM14.0879 16.5455V19.0909H20.4915V16.5455H14.0879ZM5.12288 20.3636V22.9091H11.5265V20.3636H5.12288ZM14.0879 20.3636V22.9091H20.4915V20.3636H14.0879Z" fill="#161616" />
</svg>
